
<svg xmlns:xlink="http://www.w3.org/1999/xlink"
     xmlns:sketch="http://www.bohemiancoding.com/sketch/ns"
     xmlns="http://www.w3.org/2000/svg" width="199" height="60">
    <defs id="genericDefs"/>
    <g transform="scale(1, 1)">
        <defs id="defs1">
            <linearGradient x1="0" gradientUnits="userSpaceOnUse" x2="0" y1="1" y2="57" id="linearGradient1" spreadMethod="pad">
                <stop style="stop-opacity:1; stop-color:#abff69;" offset="0%"   />
                <stop style="stop-opacity:1; stop-color:#6bad42;"     offset="5%"   />
                <stop style="stop-opacity:1; stop-color:#64a13d;"   offset="100%" />
            </linearGradient>
        </defs>

        <style>
            rect.classic {
                fill : url(#linearGradient1);
                stroke : #49762d;
                stroke-width : 1.25;
            }
            rect.flat {
                fill : #6bad42;
                stroke : none;
            }
            rect.flat-shadow.rect {
                fill:#6bad42;
            }
            rect.flat-shadow.shadow {
                fill:#49762d;
            }
            rect.outline {
                fill : black;
                fill-opacity : 0.12;
                stroke : white;
                stroke-width:2.5;
            }
        </style>

        <!-- Draw Rounded Rectangle -->
                    <rect x="1" y="1" width="197" height="58" class="classic" rx="1.5" ry="1.5" />

        <!-- Draw EatStreet Logo -->
                <g id="Buttons" sketch:type="MSPage">
            <g id="logo-green" sketch:type="MSArtboardGroup" fill="white" transform="translate(14, 11)">
                <path d="M12.2638123,29.3120833 L7.93751951,29.3120833 L7.93751951,6.60291667 L10.6653314,6.60291667 L10.6653314,23.4853333 L13.2751535,23.4853333 L13.2751535,6.60291667 L15.7417022,6.60291667 L15.7417022,23.4853333 L18.3304547,23.4853333 L18.3304547,6.60291667 L21.0624805,6.60291667 L21.0624805,29.3120833 L16.7361877,29.3120833 L17.0704921,33.2801667 C17.1519613,34.2534167 17.9554157,35 18.9204037,35 L26.1444699,35 C27.1698575,35 28,34.1585 28,33.1200833 L28,2.87991667 C28,1.8415 27.1698575,1 26.1444699,1 L2.85693476,1 C1.83154719,1 1,1.8415 1,2.87991667 L1,33.1200833 C1,34.1585 1.83154719,35 2.85693476,35 L10.0810009,35 C11.045989,35 11.8494433,34.252 11.9309125,33.27875 L12.2638123,29.3120833 Z" id="Fill-5" sketch:type="MSShapeGroup"></path>
            </g>
        </g>

        <!-- Draw Button Text -->
        <g style="font-size:24px; font-family:'Helvetica Neue', sans-serif;">
                            <text x="55" y="36" style="fill:#2e4b1c;">Order Now</text>
                        <text x="55" y="37" style="fill:#ffffff;">Order Now</text>
        </g>
        <!-- Draw Coupon Text -->
        <g style="font-size:12px; font-family:'Helvetica Neue', sans-serif;">
                            <text x="55" y="-1" style="fill:#2e4b1c;" ></text>
                        <text x="55" y="0" style="fill:#ffffff;"></text>
        </g>

            </g>
</svg>
